<?xml version="1.0" encoding="utf-8"?>
<svg xmlns="http://www.w3.org/2000/svg" width="64" height="64" viewBox="0 0 64 64" role="img" aria-labelledby="title desc">
  <title id="title">Double Bass (64x64)</title>
  <desc id="desc">Compact, realistic-styled double-bass logo optimized for 64×64 display (wood tones, f-holes, bridge, fingerboard and strings).</desc>

  <defs>
    <linearGradient id="gWood" x1="0" y1="0" x2="1" y2="1">
      <stop offset="0" stop-color="#b06b32"/>
      <stop offset="0.6" stop-color="#8a4b23"/>
      <stop offset="1" stop-color="#4b2812"/>
    </linearGradient>

    <radialGradient id="gVarnish" cx="30%" cy="25%" r="60%">
      <stop offset="0" stop-color="#fff5e8" stop-opacity="0.7"/>
      <stop offset="1" stop-color="#fff5e8" stop-opacity="0"/>
    </radialGradient>

    <filter id="soft" x="-50%" y="-50%" width="200%" height="200%">
      <feDropShadow dx="0" dy="1.8" stdDeviation="1.8" flood-color="#000" flood-opacity="0.25"/>
    </filter>
  </defs>

  <!-- slight shadow to lift the mark -->
  <ellipse cx="32" cy="57" rx="14" ry="2.4" fill="#000" opacity="0.14"/>

  <!-- body -->
  <g filter="url(#soft)">
    <path d="M18 8
             C12 8, 8 12, 10 18
             C12 26, 18 30, 20 36
             C14 42, 12 50, 18 54
             C26 58, 38 56, 40 50
             C46 46, 50 40, 46 32
             C52 26, 56 18, 50 12
             C44 6, 30 6, 18 8 Z"
          fill="url(#gWood)" stroke="#2f1708" stroke-width="1.2" stroke-linejoin="round"/>

    <!-- varnish highlight -->
    <path d="M22 12 C28 10, 36 10, 44 16 C46 18, 48 22, 46 26 C42 30, 36 32, 30 36 C26 32,24 22,22 12 Z"
          fill="url(#gVarnish)" opacity="0.9"/>

    <!-- f-holes (simplified, high-contrast) -->
    <path d="M26 28
             C25 26, 27 24, 30 24
             C28 28, 25 30, 26 32
             C27 34, 30 34, 31 32"
          fill="#0b0b0b" opacity="0.95"/>
    <path d="M38 28
             C37 26, 39 24, 42 24
             C40 28, 37 30, 38 32
             C39 34, 42 34, 43 32"
          fill="#0b0b0b" opacity="0.95"/>

    <!-- bridge -->
    <rect x="27.5" y="34.5" width="9" height="3" rx="0.8" fill="#e9d7b6" stroke="#6b4a2b" stroke-width="0.6"/>

    <!-- tailpiece / end area -->
    <path d="M22 50 C26 54, 34 56, 36 52 C38 48, 30 46, 22 50 Z" fill="#1b1b1b" stroke="#0f0f0f" stroke-width="0.6"/>
  </g>

  <!-- fingerboard / neck (thin, readable at 64) -->
  <rect x="39" y="2" width="6" height="36" rx="1" fill="#191919" transform="rotate(-8 42 20)" stroke="#000" stroke-width="0.5"/>

  <!-- scroll / head (stylized) -->
  <path d="M46 2 C49 0, 54 2, 53 6 C52 10, 48 12, 45 11" fill="#4b2b18" stroke="#2b170b" stroke-width="0.6" transform="rotate(-8 49 6)"/>

  <!-- strings (4) - visible and optimized for small size -->
  <g stroke="#f3efe9" stroke-linecap="round" stroke-width="0.9">
    <path d="M28.5 36 C30 30, 33 24, 46 8" stroke-opacity="0.95"/>
    <path d="M30.5 36 C32 30, 35 24, 48 8" stroke-opacity="0.85"/>
    <path d="M32.5 36 C34 30, 37 24, 50 8" stroke-opacity="0.75"/>
    <path d="M34.5 36 C36 30, 39 24, 52 8" stroke-opacity="0.65"/>
  </g>

</svg>